<svg xmlns="http://www.w3.org/2000/svg" width="1200" height="800" viewBox="0 0 1200 800">
  <defs>
    <linearGradient id="g" x1="0" y1="0" x2="1" y2="1">
      <stop offset="0" stop-color="#E9D8A6"/>
      <stop offset="0.45" stop-color="#C8A85A"/>
      <stop offset="1" stop-color="#9A7A36"/>
    </linearGradient>
    <radialGradient id="halo" cx="30%" cy="20%" r="80%">
      <stop offset="0" stop-color="rgba(200,168,90,0.24)"/>
      <stop offset="0.55" stop-color="rgba(200,168,90,0.10)"/>
      <stop offset="1" stop-color="rgba(200,168,90,0)"/>
    </radialGradient>
    <filter id="b" x="-20%" y="-20%" width="140%" height="140%">
      <feGaussianBlur stdDeviation="18"/>
    </filter>
  </defs>

  <rect width="1200" height="800" rx="44" fill="#050608"/>
  <rect width="1200" height="800" rx="44" fill="url(#halo)"/>

  <g filter="url(#b)" opacity="0.75">
    <circle cx="260" cy="160" r="170" fill="rgba(200,168,90,0.22)"/>
    <circle cx="980" cy="190" r="200" fill="rgba(255,255,255,0.08)"/>
  </g>

  <g transform="translate(80 90)">
    <rect width="1040" height="620" rx="36" fill="rgba(255,255,255,0.05)" stroke="rgba(255,255,255,0.10)"/>

    <g opacity="0.18" stroke="#FFFFFF" stroke-width="1">
      <path d="M80 120H960"/>
      <path d="M80 200H960"/>
      <path d="M80 280H960"/>
      <path d="M80 360H960"/>
      <path d="M80 440H960"/>
    </g>

    <g transform="translate(80 110)">
      <text x="0" y="0" font-family="Plus Jakarta Sans, system-ui" font-size="14" letter-spacing="6" fill="rgba(255,255,255,0.55)">FINANCIAL CASE STUDY</text>
      <text x="0" y="38" font-family="Cormorant Garamond, serif" font-size="44" font-weight="700" fill="url(#g)">Performance Drivers</text>
    </g>

    <g transform="translate(120 290)">
      <g>
        <rect x="0" y="170" width="44" height="140" rx="10" fill="rgba(200,168,90,0.20)"/>
        <rect x="72" y="120" width="44" height="190" rx="10" fill="rgba(200,168,90,0.28)"/>
        <rect x="144" y="70" width="44" height="240" rx="10" fill="rgba(200,168,90,0.36)"/>
        <rect x="216" y="140" width="44" height="170" rx="10" fill="rgba(200,168,90,0.26)"/>
        <rect x="288" y="90" width="44" height="220" rx="10" fill="rgba(200,168,90,0.34)"/>
      </g>

      <path d="M0 210 C 120 110, 220 240, 332 140" fill="none" stroke="url(#g)" stroke-width="3" stroke-linecap="round"/>
      <circle cx="0" cy="210" r="5" fill="#E9D8A6"/>
      <circle cx="120" cy="140" r="5" fill="#E9D8A6"/>
      <circle cx="220" cy="220" r="5" fill="#E9D8A6"/>
      <circle cx="332" cy="140" r="5" fill="#E9D8A6"/>
    </g>

    <g transform="translate(560 270)">
      <rect width="400" height="340" rx="26" fill="rgba(0,0,0,0.28)" stroke="rgba(255,255,255,0.10)"/>
      <text x="26" y="48" font-family="Plus Jakarta Sans, system-ui" font-size="12" letter-spacing="6" fill="rgba(255,255,255,0.55)">EXEC SUMMARY</text>
      <text x="26" y="92" font-family="Plus Jakarta Sans, system-ui" font-size="16" font-weight="600" fill="rgba(255,255,255,0.85)">Key finding</text>
      <text x="26" y="126" font-family="Plus Jakarta Sans, system-ui" font-size="14" fill="rgba(255,255,255,0.65)">Margin improves when</text>
      <text x="26" y="150" font-family="Plus Jakarta Sans, system-ui" font-size="14" fill="rgba(255,255,255,0.65)">operating leverage is</text>
      <text x="26" y="174" font-family="Plus Jakarta Sans, system-ui" font-size="14" fill="rgba(255,255,255,0.65)">paired with pricing power.</text>

      <rect x="26" y="222" width="348" height="10" rx="999" fill="rgba(255,255,255,0.08)"/>
      <rect x="26" y="222" width="230" height="10" rx="999" fill="rgba(200,168,90,0.55)"/>
      <text x="26" y="270" font-family="Plus Jakarta Sans, system-ui" font-size="12" letter-spacing="4" fill="rgba(233,216,166,0.85)">CONFIDENCE</text>
    </g>
  </g>
</svg>
