<svg xmlns="http://www.w3.org/2000/svg" width="1200" height="800" viewBox="0 0 1200 800">
  <defs>
    <linearGradient id="g" x1="0" y1="0" x2="1" y2="1">
      <stop offset="0" stop-color="#E9D8A6"/>
      <stop offset="0.45" stop-color="#C8A85A"/>
      <stop offset="1" stop-color="#9A7A36"/>
    </linearGradient>
    <radialGradient id="halo" cx="45%" cy="18%" r="90%">
      <stop offset="0" stop-color="rgba(200,168,90,0.24)"/>
      <stop offset="0.55" stop-color="rgba(200,168,90,0.10)"/>
      <stop offset="1" stop-color="rgba(200,168,90,0)"/>
    </radialGradient>
    <filter id="b" x="-20%" y="-20%" width="140%" height="140%">
      <feGaussianBlur stdDeviation="18"/>
    </filter>
  </defs>

  <rect width="1200" height="800" rx="44" fill="#050608"/>
  <rect width="1200" height="800" rx="44" fill="url(#halo)"/>

  <g filter="url(#b)" opacity="0.75">
    <circle cx="320" cy="160" r="190" fill="rgba(200,168,90,0.22)"/>
    <circle cx="980" cy="220" r="220" fill="rgba(255,255,255,0.08)"/>
  </g>

  <g transform="translate(90 90)">
    <rect width="1020" height="620" rx="36" fill="rgba(255,255,255,0.05)" stroke="rgba(255,255,255,0.10)"/>

    <g transform="translate(80 110)">
      <text x="0" y="0" font-family="Plus Jakarta Sans, system-ui" font-size="14" letter-spacing="6" fill="rgba(255,255,255,0.55)">MARKET TREND DASHBOARD</text>
      <text x="0" y="38" font-family="Cormorant Garamond, serif" font-size="44" font-weight="700" fill="url(#g)">Signals at a glance</text>
    </g>

    <g transform="translate(80 220)">
      <rect width="860" height="160" rx="28" fill="rgba(0,0,0,0.26)" stroke="rgba(255,255,255,0.10)"/>
      <text x="28" y="52" font-family="Plus Jakarta Sans, system-ui" font-size="12" letter-spacing="6" fill="rgba(255,255,255,0.55)">MACRO</text>

      <g transform="translate(28 78)">
        <rect width="190" height="62" rx="18" fill="rgba(255,255,255,0.05)" stroke="rgba(255,255,255,0.10)"/>
        <text x="18" y="38" font-family="Plus Jakarta Sans, system-ui" font-size="14" fill="rgba(255,255,255,0.70)">Inflation</text>
        <text x="160" y="38" text-anchor="end" font-family="Plus Jakarta Sans, system-ui" font-size="14" fill="rgba(233,216,166,0.85)">↓</text>
      </g>
      <g transform="translate(238 78)">
        <rect width="190" height="62" rx="18" fill="rgba(255,255,255,0.05)" stroke="rgba(255,255,255,0.10)"/>
        <text x="18" y="38" font-family="Plus Jakarta Sans, system-ui" font-size="14" fill="rgba(255,255,255,0.70)">Rates</text>
        <text x="160" y="38" text-anchor="end" font-family="Plus Jakarta Sans, system-ui" font-size="14" fill="rgba(233,216,166,0.85)">→</text>
      </g>
      <g transform="translate(448 78)">
        <rect width="190" height="62" rx="18" fill="rgba(255,255,255,0.05)" stroke="rgba(255,255,255,0.10)"/>
        <text x="18" y="38" font-family="Plus Jakarta Sans, system-ui" font-size="14" fill="rgba(255,255,255,0.70)">FX</text>
        <text x="160" y="38" text-anchor="end" font-family="Plus Jakarta Sans, system-ui" font-size="14" fill="rgba(233,216,166,0.85)">↑</text>
      </g>
      <g transform="translate(658 78)">
        <rect width="174" height="62" rx="18" fill="rgba(255,255,255,0.05)" stroke="rgba(255,255,255,0.10)"/>
        <text x="18" y="38" font-family="Plus Jakarta Sans, system-ui" font-size="14" fill="rgba(255,255,255,0.70)">Sentiment</text>
        <text x="150" y="38" text-anchor="end" font-family="Plus Jakarta Sans, system-ui" font-size="14" fill="rgba(233,216,166,0.85)">+0.6</text>
      </g>
    </g>

    <g transform="translate(80 410)">
      <rect width="540" height="230" rx="28" fill="rgba(0,0,0,0.26)" stroke="rgba(255,255,255,0.10)"/>
      <text x="28" y="52" font-family="Plus Jakarta Sans, system-ui" font-size="12" letter-spacing="6" fill="rgba(255,255,255,0.55)">SECTOR MOVES</text>

      <g opacity="0.18" stroke="#FFFFFF" stroke-width="1">
        <path d="M28 90H512"/>
        <path d="M28 130H512"/>
        <path d="M28 170H512"/>
      </g>

      <path d="M28 170 C 120 120, 200 190, 290 120 S 420 160, 512 100" fill="none" stroke="url(#g)" stroke-width="3" stroke-linecap="round"/>
    </g>

    <g transform="translate(650 410)">
      <rect width="290" height="230" rx="28" fill="rgba(0,0,0,0.26)" stroke="rgba(255,255,255,0.10)"/>
      <text x="28" y="52" font-family="Plus Jakarta Sans, system-ui" font-size="12" letter-spacing="6" fill="rgba(255,255,255,0.55)">WATCHLIST</text>

      <g font-family="Plus Jakarta Sans, system-ui" font-size="14" fill="rgba(255,255,255,0.72)">
        <text x="28" y="96">Banking</text>
        <text x="28" y="132">FMCG</text>
        <text x="28" y="168">Energy</text>
        <text x="28" y="204">IT</text>
      </g>
      <g font-family="Plus Jakarta Sans, system-ui" font-size="14" fill="rgba(233,216,166,0.85)" text-anchor="end">
        <text x="262" y="96">+1.8%</text>
        <text x="262" y="132">+0.4%</text>
        <text x="262" y="168">-0.6%</text>
        <text x="262" y="204">+1.2%</text>
      </g>
    </g>
  </g>
</svg>
