<svg xmlns="http://www.w3.org/2000/svg" width="900" height="1100" viewBox="0 0 900 1100">
  <defs>
    <linearGradient id="gold" x1="0" y1="0" x2="1" y2="1">
      <stop offset="0" stop-color="#E9D8A6"/>
      <stop offset="0.45" stop-color="#C8A85A"/>
      <stop offset="1" stop-color="#9A7A36"/>
    </linearGradient>
    <radialGradient id="halo" cx="50%" cy="35%" r="70%">
      <stop offset="0" stop-color="rgba(200,168,90,0.28)"/>
      <stop offset="0.55" stop-color="rgba(200,168,90,0.10)"/>
      <stop offset="1" stop-color="rgba(200,168,90,0)"/>
    </radialGradient>
    <filter id="blur" x="-20%" y="-20%" width="140%" height="140%">
      <feGaussianBlur stdDeviation="22"/>
    </filter>
  </defs>

  <rect width="900" height="1100" rx="48" fill="#050608"/>
  <rect width="900" height="1100" rx="48" fill="url(#halo)"/>

  <g opacity="0.18" stroke="#FFFFFF" stroke-width="1">
    <path d="M80 180H820"/>
    <path d="M80 240H820"/>
    <path d="M80 300H820"/>
    <path d="M80 360H820"/>
  </g>

  <g filter="url(#blur)" opacity="0.7">
    <circle cx="210" cy="240" r="170" fill="rgba(200,168,90,0.24)"/>
    <circle cx="720" cy="260" r="190" fill="rgba(255,255,255,0.08)"/>
  </g>

  <g transform="translate(210 270)" opacity="0.95">
    <circle cx="240" cy="220" r="160" fill="rgba(255,255,255,0.06)" stroke="rgba(255,255,255,0.10)"/>
    <path
      d="M240 420c110 0 200-62 200-140 0-68-62-109-127-132 6-12 10-25 10-39 0-53-44-97-99-97-55 0-99 44-99 97 0 14 3 27 9 39-65 23-127 64-127 132 0 78 90 140 233 140z"
      fill="rgba(10,12,16,0.9)"
      stroke="rgba(200,168,90,0.55)"
      stroke-width="3"
    />
    <path
      d="M164 227c18-56 68-95 126-95 58 0 108 39 126 95"
      fill="none"
      stroke="rgba(233,216,166,0.75)"
      stroke-width="3"
      stroke-linecap="round"
    />
  </g>

  <text x="90" y="940" font-family="Cormorant Garamond, serif" font-size="64" font-weight="700" fill="url(#gold)">
    Nishika Sadane
  </text>
  <text x="92" y="992" font-family="Plus Jakarta Sans, system-ui" font-size="16" letter-spacing="6" fill="rgba(255,255,255,0.55)">
    FINANCE • STRATEGY • CLARITY
  </text>
</svg>
